<svg width="176" height="20" viewBox="0 0 176 20" fill="none" xmlns="http://www.w3.org/2000/svg">
<path fill-rule="evenodd" clip-rule="evenodd" d="M17.4756 1.59961H2.52361C2.0133 1.59961 1.59961 2.0133 1.59961 2.52361V17.4756C1.59961 17.7207 1.69696 17.9557 1.87024 18.129C2.04353 18.3023 2.27855 18.3996 2.52361 18.3996H10.5708V11.8896H8.38681V9.36961H10.5708V7.47961C10.4792 6.58141 10.7893 5.68866 11.4179 5.04059C12.0465 4.39253 12.9294 4.05542 13.83 4.11961C14.4838 4.11559 15.1373 4.14924 15.7872 4.22041V6.48841H14.4516C13.3932 6.48841 13.1916 6.99241 13.1916 7.72321V9.34441H15.7116L15.384 11.8644H13.1916V18.3996H17.4756C17.7207 18.3996 17.9557 18.3023 18.129 18.129C18.3023 17.9557 18.3996 17.7207 18.3996 17.4756V2.52361C18.3996 2.27855 18.3023 2.04353 18.129 1.87024C17.9557 1.69696 17.7207 1.59961 17.4756 1.59961Z" fill="#2F302C"/>
<path fill-rule="evenodd" clip-rule="evenodd" d="M70.3996 4.76448C69.7682 5.03985 69.1005 5.22189 68.4172 5.30493C69.1381 4.872 69.6783 4.19092 69.9376 3.38804C69.2602 3.79343 68.5186 4.07905 67.7452 4.23248C66.6819 3.0733 64.9738 2.78279 63.5904 3.52584C62.207 4.2689 61.4977 5.8578 61.8652 7.39071C59.0952 7.24986 56.515 5.93299 54.7672 3.76804C54.4641 4.30018 54.3048 4.90282 54.3052 5.51604C54.303 6.67269 54.8769 7.75364 55.834 8.3956C55.2863 8.38062 54.7503 8.23287 54.2716 7.96493V8.00715C54.2801 9.65211 55.4387 11.064 57.0436 11.3849C56.7439 11.4766 56.4328 11.5249 56.1196 11.5285C55.9028 11.5259 55.6865 11.5062 55.4728 11.4694C55.9272 12.8763 57.2188 13.8391 58.69 13.8676C57.4781 14.8263 55.9818 15.3495 54.4396 15.3538C54.1588 15.3547 53.8783 15.3378 53.5996 15.3032C55.1741 16.3251 57.009 16.8677 58.8832 16.8654C61.4958 16.8926 64.0097 15.8631 65.8596 14.0082C67.7094 12.1533 68.74 9.62877 68.7196 7.00226C68.7196 6.85871 68.7196 6.70671 68.7196 6.55471C69.3788 6.06055 69.9472 5.45475 70.3996 4.76448Z" fill="#2F302C"/>
<path fill-rule="evenodd" clip-rule="evenodd" d="M118.485 4.50601C118.078 4.50601 117.71 4.7516 117.554 5.12826C117.398 5.50493 117.484 5.93849 117.772 6.22677C118.061 6.51506 118.494 6.6013 118.871 6.44528C119.248 6.28926 119.493 5.92171 119.493 5.51401C119.493 4.95731 119.042 4.50601 118.485 4.50601ZM122.349 6.53881C122.333 5.84186 122.202 5.15231 121.963 4.49761C121.749 3.93744 121.417 3.4302 120.988 3.01081C120.572 2.58025 120.064 2.24992 119.502 2.04481C118.849 1.79798 118.158 1.66447 117.46 1.65001C116.57 1.59961 116.284 1.59961 114 1.59961C111.715 1.59961 111.429 1.59961 110.539 1.65001C109.841 1.66447 109.151 1.79798 108.498 2.04481C107.936 2.25199 107.428 2.58204 107.011 3.01081C106.58 3.42676 106.25 3.93518 106.045 4.49761C105.798 5.15058 105.664 5.8409 105.65 6.53881C105.6 7.42921 105.6 7.71481 105.6 9.99961C105.6 12.2844 105.6 12.57 105.65 13.4604C105.664 14.1583 105.798 14.8486 106.045 15.5016C106.25 16.064 106.58 16.5725 107.011 16.9884C107.428 17.4172 107.936 17.7472 108.498 17.9544C109.151 18.2012 109.841 18.3348 110.539 18.3492C111.429 18.3996 111.715 18.3996 114 18.3996C116.284 18.3996 116.57 18.3996 117.46 18.3492C118.158 18.3348 118.849 18.2012 119.502 17.9544C120.064 17.7493 120.572 17.419 120.988 16.9884C121.419 16.5706 121.751 16.0629 121.963 15.5016C122.202 14.8469 122.333 14.1574 122.349 13.4604C122.349 12.57 122.4 12.2844 122.4 9.99961C122.4 7.71481 122.4 7.42921 122.349 6.53881ZM120.837 13.3596C120.831 13.8928 120.735 14.4211 120.552 14.922C120.417 15.2876 120.202 15.6179 119.922 15.888C119.649 16.1656 119.32 16.3806 118.956 16.518C118.455 16.7009 117.926 16.7975 117.393 16.8036C116.553 16.8456 116.242 16.854 114.033 16.854C111.824 16.854 111.513 16.854 110.673 16.8036C110.12 16.814 109.568 16.7287 109.044 16.5516C108.696 16.4072 108.381 16.1928 108.12 15.9216C107.841 15.6518 107.628 15.3212 107.498 14.9556C107.293 14.4475 107.179 13.9072 107.162 13.3596C107.162 12.5196 107.112 12.2088 107.112 9.99961C107.112 7.79041 107.112 7.47961 107.162 6.63961C107.166 6.0945 107.265 5.55428 107.456 5.04361C107.604 4.68905 107.831 4.373 108.12 4.11961C108.375 3.83079 108.69 3.60141 109.044 3.44761C109.556 3.26285 110.095 3.16628 110.64 3.16201C111.48 3.16201 111.79 3.11161 114 3.11161C116.209 3.11161 116.52 3.11161 117.36 3.16201C117.893 3.16813 118.421 3.2647 118.922 3.44761C119.304 3.58928 119.646 3.8196 119.922 4.11961C120.197 4.37764 120.412 4.6931 120.552 5.04361C120.738 5.55511 120.835 6.0951 120.837 6.63961C120.879 7.47961 120.888 7.79041 120.888 9.99961C120.888 12.2088 120.879 12.5196 120.837 13.3596ZM114 5.69041C111.621 5.69505 109.696 7.62639 109.699 10.0052C109.702 12.384 111.632 14.3103 114.011 14.3088C116.39 14.3073 118.317 12.3784 118.317 9.99961C118.319 8.85459 117.865 7.75595 117.055 6.94709C116.244 6.13823 115.145 5.68593 114 5.69041ZM114 12.7968C112.455 12.7968 111.202 11.5445 111.202 9.99961C111.202 8.45476 112.455 7.20241 114 7.20241C115.544 7.20241 116.797 8.45476 116.797 9.99961C116.797 10.7415 116.502 11.453 115.978 11.9775C115.453 12.5021 114.741 12.7968 114 12.7968Z" fill="#2F302C"/>
<g clip-path="url(#clip0_22_17613)">
<path d="M166 19.1513C171.062 19.1513 175.166 15.0506 175.166 9.99214C175.166 4.93369 171.062 0.833008 166 0.833008C160.937 0.833008 156.833 4.93369 156.833 9.99214C156.833 15.0506 160.937 19.1513 166 19.1513Z" fill="white"/>
<path d="M166 0.833008C160.937 0.833008 156.833 4.93389 156.833 9.99214C156.833 13.8744 159.247 17.1913 162.657 18.5256C162.574 17.8019 162.507 16.6862 162.688 15.8947C162.854 15.1785 163.759 11.3415 163.759 11.3415C163.759 11.3415 163.487 10.7912 163.487 9.9846C163.487 8.71061 164.227 7.76078 165.147 7.76078C165.932 7.76078 166.309 8.34877 166.309 9.04984C166.309 9.83383 165.811 11.0098 165.547 12.1029C165.328 13.015 166.007 13.7613 166.905 13.7613C168.535 13.7613 169.787 12.0426 169.787 9.56999C169.787 7.37632 168.21 5.84603 165.954 5.84603C163.344 5.84603 161.812 7.79847 161.812 9.81875C161.812 10.6027 162.114 11.447 162.491 11.9069C162.567 11.9973 162.574 12.0803 162.552 12.1707C162.484 12.4572 162.325 13.0829 162.295 13.211C162.258 13.3769 162.159 13.4146 161.986 13.3316C160.839 12.7964 160.122 11.1304 160.122 9.78106C160.122 6.89386 162.22 4.24035 166.181 4.24035C169.357 4.24035 171.832 6.50187 171.832 9.5323C171.832 12.6909 169.84 15.2313 167.079 15.2313C166.151 15.2313 165.275 14.7489 164.981 14.1759C164.981 14.1759 164.521 15.9248 164.408 16.3545C164.204 17.1536 163.646 18.1487 163.269 18.7593C164.129 19.0231 165.034 19.1663 165.985 19.1663C171.047 19.1663 175.151 15.0655 175.151 10.0072C175.166 4.93388 171.062 0.833008 166 0.833008Z" fill="#2F302C"/>
</g>
<defs>
<clipPath id="clip0_22_17613">
<rect width="20" height="20" fill="white" transform="translate(156)"/>
</clipPath>
</defs>
</svg>
