<svg width="40" height="40" viewBox="0 0 40 40" fill="none" xmlns="http://www.w3.org/2000/svg">
<path d="M0 6C0 2.68629 2.68629 0 6 0H34C37.3137 0 40 2.68629 40 6V34C40 37.3137 37.3137 40 34 40H6C2.68629 40 0 37.3137 0 34V6Z" fill="#F4F4F5"/>
<path d="M24.6673 21.3333C25.6607 20.36 26.6673 19.1933 26.6673 17.6667C26.6673 16.6942 26.281 15.7616 25.5934 15.0739C24.9057 14.3863 23.9731 14 23.0007 14C21.8273 14 21.0007 14.3333 20.0007 15.3333C19.0007 14.3333 18.174 14 17.0007 14C16.0282 14 15.0956 14.3863 14.4079 15.0739C13.7203 15.7616 13.334 16.6942 13.334 17.6667C13.334 19.2 14.334 20.3667 15.334 21.3333L20.0007 26L24.6673 21.3333Z" stroke="#18181B" stroke-width="1.33" stroke-linecap="round" stroke-linejoin="round"/>
<path d="M16 20C16 13.3726 21.3726 8 28 8C34.6274 8 40 13.3726 40 20C40 26.6274 34.6274 32 28 32C21.3726 32 16 26.6274 16 20Z" fill="#18181B"/>
<path d="M29.4425 15.2727V24H27.8615V16.8111H27.8104L25.7692 18.1151V16.6662L27.9382 15.2727H29.4425Z" fill="#FAFAFA"/>
</svg>
