<svg width="200" height="42" viewBox="0 0 200 42" fill="none" xmlns="http://www.w3.org/2000/svg">
<path d="M54.772 13.8154H62.422V17.43H54.772V13.8154ZM55.1035 23.1H50.4141V6.5625H63.4167V10.1771H55.1035V23.1Z" fill="#2F302C"/>
<path d="M74.6809 23.4307C72.2336 23.4307 70.323 22.7614 68.9494 21.4226C67.5757 20.0839 66.8888 18.186 66.8888 15.729V6.5625H71.5783V15.5872C71.5783 17.0047 71.8546 18.0206 72.4073 18.6349C72.9757 19.2491 73.7494 19.5562 74.7283 19.5562C75.7073 19.5562 76.473 19.2491 77.0257 18.6349C77.5783 18.0206 77.8546 17.0047 77.8546 15.5872V6.5625H82.473V15.729C82.473 18.186 81.7862 20.0839 80.4125 21.4226C79.0388 22.7614 77.1283 23.4307 74.6809 23.4307Z" fill="#2F302C"/>
<path d="M87.0709 23.1V6.5625H94.6499C96.1657 6.5625 97.4683 6.80662 98.5578 7.29487C99.663 7.78312 100.516 8.49187 101.116 9.42112C101.716 10.3346 102.016 11.4214 102.016 12.6814C102.016 13.9256 101.716 15.0045 101.116 15.918C100.516 16.8157 99.663 17.5087 98.5578 17.997C97.4683 18.4695 96.1657 18.7057 94.6499 18.7057H89.6762L91.7604 16.7449V23.1H87.0709ZM97.3262 23.1L93.2051 17.0756H98.2025L102.347 23.1H97.3262ZM91.7604 17.241L89.6762 15.0911H94.3657C95.3446 15.0911 96.0709 14.8785 96.5446 14.4532C97.0341 14.028 97.2788 13.4374 97.2788 12.6814C97.2788 11.9096 97.0341 11.3111 96.5446 10.8859C96.0709 10.4606 95.3446 10.248 94.3657 10.248H89.6762L91.7604 8.09812V17.241Z" fill="#2F302C"/>
<path d="M106.024 23.1V6.5625H109.884L119.026 17.5717H117.203V6.5625H121.798V23.1H117.937L108.795 12.0907H110.619V23.1H106.024Z" fill="#2F302C"/>
<path d="M126.526 23.1V6.5625H131.216V23.1H126.526Z" fill="#2F302C"/>
<path d="M139.502 23.1V10.2716H134.41V6.5625H149.26V10.2716H144.192V23.1H139.502Z" fill="#2F302C"/>
<path d="M159.824 23.4307C157.376 23.4307 155.466 22.7614 154.092 21.4226C152.719 20.0839 152.032 18.186 152.032 15.729V6.5625H156.721V15.5872C156.721 17.0047 156.998 18.0206 157.55 18.6349C158.119 19.2491 158.892 19.5562 159.871 19.5562C160.85 19.5562 161.616 19.2491 162.169 18.6349C162.721 18.0206 162.998 17.0047 162.998 15.5872V6.5625H167.616V15.729C167.616 18.186 166.929 20.0839 165.555 21.4226C164.182 22.7614 162.271 23.4307 159.824 23.4307Z" fill="#2F302C"/>
<path d="M172.214 23.1V6.5625H179.793C181.309 6.5625 182.611 6.80662 183.701 7.29487C184.806 7.78312 185.659 8.49187 186.259 9.42112C186.859 10.3346 187.159 11.4214 187.159 12.6814C187.159 13.9256 186.859 15.0045 186.259 15.918C185.659 16.8157 184.806 17.5087 183.701 17.997C182.611 18.4695 181.309 18.7057 179.793 18.7057H174.819L176.903 16.7449V23.1H172.214ZM182.469 23.1L178.348 17.0756H183.345L187.49 23.1H182.469ZM176.903 17.241L174.819 15.0911H179.509C180.487 15.0911 181.214 14.8785 181.687 14.4532C182.177 14.028 182.422 13.4374 182.422 12.6814C182.422 11.9096 182.177 11.3111 181.687 10.8859C181.214 10.4606 180.487 10.248 179.509 10.248H174.819L176.903 8.09812V17.241Z" fill="#2F302C"/>
<path d="M51.3781 39.7162V37.5349L51.607 38.1649L49.207 34.2037H50.3044L52.2307 37.3931H51.6149L53.557 34.2037H54.5676L52.1676 38.1649L52.4044 37.5349V39.7162H51.3781Z" fill="#2F302C"/>
<path d="M59.0112 39.795C58.5796 39.795 58.1822 39.7241 57.8191 39.5824C57.4559 39.4406 57.1401 39.2437 56.8717 38.9917C56.6033 38.7345 56.3954 38.4352 56.248 38.094C56.1007 37.7475 56.027 37.3695 56.027 36.96C56.027 36.5505 56.1007 36.1751 56.248 35.8339C56.3954 35.4874 56.6033 35.1881 56.8717 34.9361C57.1401 34.6789 57.4559 34.4794 57.8191 34.3376C58.1822 34.1959 58.577 34.125 59.0033 34.125C59.4349 34.125 59.8296 34.1959 60.1875 34.3376C60.5507 34.4794 60.8664 34.6789 61.1349 34.9361C61.4033 35.1881 61.6112 35.4874 61.7586 35.8339C61.9059 36.1751 61.9796 36.5505 61.9796 36.96C61.9796 37.3695 61.9059 37.7475 61.7586 38.094C61.6112 38.4405 61.4033 38.7397 61.1349 38.9917C60.8664 39.2437 60.5507 39.4406 60.1875 39.5824C59.8296 39.7241 59.4375 39.795 59.0112 39.795ZM59.0033 38.8972C59.2822 38.8972 59.5401 38.85 59.777 38.7555C60.0138 38.661 60.2191 38.5271 60.3928 38.3539C60.5664 38.1754 60.7007 37.9706 60.7954 37.7396C60.8954 37.5034 60.9454 37.2435 60.9454 36.96C60.9454 36.6765 60.8954 36.4192 60.7954 36.1882C60.7007 35.952 60.5664 35.7472 60.3928 35.574C60.2191 35.3955 60.0138 35.259 59.777 35.1645C59.5401 35.07 59.2822 35.0227 59.0033 35.0227C58.7243 35.0227 58.4664 35.07 58.2296 35.1645C57.998 35.259 57.7928 35.3955 57.6138 35.574C57.4401 35.7472 57.3033 35.952 57.2033 36.1882C57.1086 36.4192 57.0612 36.6765 57.0612 36.96C57.0612 37.2382 57.1086 37.4955 57.2033 37.7317C57.3033 37.968 57.4401 38.1754 57.6138 38.3539C57.7875 38.5271 57.9928 38.661 58.2296 38.7555C58.4664 38.85 58.7243 38.8972 59.0033 38.8972Z" fill="#2F302C"/>
<path d="M66.8648 39.795C66.1069 39.795 65.5122 39.5824 65.0806 39.1571C64.6543 38.7319 64.4412 38.1176 64.4412 37.3144V34.2037H65.4675V37.275C65.4675 37.842 65.5885 38.2541 65.8306 38.5114C66.078 38.7686 66.4254 38.8972 66.8727 38.8972C67.3201 38.8972 67.6648 38.7686 67.9069 38.5114C68.1491 38.2541 68.2701 37.842 68.2701 37.275V34.2037H69.2806V37.3144C69.2806 38.1176 69.0648 38.7319 68.6333 39.1571C68.2069 39.5824 67.6175 39.795 66.8648 39.795Z" fill="#2F302C"/>
<path d="M72.139 39.7162V34.2037H74.4127C74.9022 34.2037 75.3206 34.2825 75.668 34.44C76.0206 34.5975 76.2917 34.8232 76.4811 35.1172C76.6706 35.4112 76.7653 35.7604 76.7653 36.1646C76.7653 36.5689 76.6706 36.918 76.4811 37.212C76.2917 37.5007 76.0206 37.7239 75.668 37.8814C75.3206 38.0336 74.9022 38.1097 74.4127 38.1097H72.7074L73.1653 37.6451V39.7162H72.139ZM75.7548 39.7162L74.3574 37.716H75.4548L76.8601 39.7162H75.7548ZM73.1653 37.7554L72.7074 37.2671H74.3653C74.818 37.2671 75.1574 37.17 75.3838 36.9757C75.6153 36.7815 75.7311 36.5111 75.7311 36.1646C75.7311 35.8129 75.6153 35.5425 75.3838 35.3535C75.1574 35.1645 74.818 35.07 74.3653 35.07H72.7074L73.1653 34.566V37.7554Z" fill="#2F302C"/>
<path d="M83.877 36.7395H86.6323V37.6057H83.877V36.7395ZM83.9639 39.7162H82.9375V34.2037H86.9718V35.0621H83.9639V39.7162Z" fill="#2F302C"/>
<path d="M91.7616 39.795C91.0037 39.795 90.409 39.5824 89.9774 39.1571C89.5511 38.7319 89.338 38.1176 89.338 37.3144V34.2037H90.3643V37.275C90.3643 37.842 90.4853 38.2541 90.7274 38.5114C90.9748 38.7686 91.3222 38.8972 91.7695 38.8972C92.2169 38.8972 92.5616 38.7686 92.8037 38.5114C93.0458 38.2541 93.1669 37.842 93.1669 37.275V34.2037H94.1774V37.3144C94.1774 38.1176 93.9616 38.7319 93.5301 39.1571C93.1037 39.5824 92.5143 39.795 91.7616 39.795Z" fill="#2F302C"/>
<path d="M98.0566 39.7162V35.07H96.2251V34.2037H100.915V35.07H99.083V39.7162H98.0566Z" fill="#2F302C"/>
<path d="M105.382 39.795C104.624 39.795 104.029 39.5824 103.598 39.1571C103.171 38.7319 102.958 38.1176 102.958 37.3144V34.2037H103.985V37.275C103.985 37.842 104.106 38.2541 104.348 38.5114C104.595 38.7686 104.942 38.8972 105.39 38.8972C105.837 38.8972 106.182 38.7686 106.424 38.5114C106.666 38.2541 106.787 37.842 106.787 37.275V34.2037H107.798V37.3144C107.798 38.1176 107.582 38.7319 107.15 39.1571C106.724 39.5824 106.135 39.795 105.382 39.795Z" fill="#2F302C"/>
<path d="M110.656 39.7162V34.2037H112.93C113.419 34.2037 113.838 34.2825 114.185 34.44C114.538 34.5975 114.809 34.8232 114.998 35.1172C115.188 35.4112 115.282 35.7604 115.282 36.1646C115.282 36.5689 115.188 36.918 114.998 37.212C114.809 37.5007 114.538 37.7239 114.185 37.8814C113.838 38.0336 113.419 38.1097 112.93 38.1097H111.225L111.682 37.6451V39.7162H110.656ZM114.272 39.7162L112.875 37.716H113.972L115.377 39.7162H114.272ZM111.682 37.7554L111.225 37.2671H112.882C113.335 37.2671 113.675 37.17 113.901 36.9757C114.132 36.7815 114.248 36.5111 114.248 36.1646C114.248 35.8129 114.132 35.5425 113.901 35.3535C113.675 35.1645 113.335 35.07 112.882 35.07H111.225L111.682 34.566V37.7554Z" fill="#2F302C"/>
<path d="M118.799 36.4954H121.546V37.338H118.799V36.4954ZM118.878 38.8579H121.996V39.7162H117.852V34.2037H121.886V35.0621H118.878V38.8579Z" fill="#2F302C"/>
<path d="M128.165 39.7162V34.2037H129.191V39.7162H128.165Z" fill="#2F302C"/>
<path d="M132.107 39.7162V34.2037H132.951L136.417 38.4484H135.999V34.2037H137.017V39.7162H136.172L132.707 35.4716H133.125V39.7162H132.107Z" fill="#2F302C"/>
<path d="M141.04 39.7162V35.07H139.209V34.2037H143.898V35.07H142.066V39.7162H141.04Z" fill="#2F302C"/>
<path d="M147.037 36.4954H149.784V37.338H147.037V36.4954ZM147.116 38.8579H150.234V39.7162H146.089V34.2037H150.123V35.0621H147.116V38.8579Z" fill="#2F302C"/>
<path d="M152.799 39.7162V34.2037H155.073C155.562 34.2037 155.981 34.2825 156.328 34.44C156.681 34.5975 156.952 34.8232 157.141 35.1172C157.331 35.4112 157.425 35.7604 157.425 36.1646C157.425 36.5689 157.331 36.918 157.141 37.212C156.952 37.5007 156.681 37.7239 156.328 37.8814C155.981 38.0336 155.562 38.1097 155.073 38.1097H153.368L153.825 37.6451V39.7162H152.799ZM156.415 39.7162L155.018 37.716H156.115L157.52 39.7162H156.415ZM153.825 37.7554L153.368 37.2671H155.025C155.478 37.2671 155.818 37.17 156.044 36.9757C156.275 36.7815 156.391 36.5111 156.391 36.1646C156.391 35.8129 156.275 35.5425 156.044 35.3535C155.818 35.1645 155.478 35.07 155.025 35.07H153.368L153.825 34.566V37.7554Z" fill="#2F302C"/>
<path d="M159.995 39.7162V34.2037H161.021V39.7162H159.995Z" fill="#2F302C"/>
<path d="M166.526 39.795C166.095 39.795 165.697 39.7241 165.334 39.5824C164.971 39.4406 164.655 39.2437 164.387 38.9917C164.119 38.7345 163.911 38.4352 163.763 38.094C163.616 37.7475 163.542 37.3695 163.542 36.96C163.542 36.5505 163.616 36.1751 163.763 35.8339C163.911 35.4874 164.119 35.1881 164.387 34.9361C164.655 34.6789 164.971 34.4794 165.334 34.3376C165.697 34.1959 166.092 34.125 166.519 34.125C166.95 34.125 167.345 34.1959 167.703 34.3376C168.066 34.4794 168.382 34.6789 168.65 34.9361C168.919 35.1881 169.126 35.4874 169.274 35.8339C169.421 36.1751 169.495 36.5505 169.495 36.96C169.495 37.3695 169.421 37.7475 169.274 38.094C169.126 38.4405 168.919 38.7397 168.65 38.9917C168.382 39.2437 168.066 39.4406 167.703 39.5824C167.345 39.7241 166.953 39.795 166.526 39.795ZM166.519 38.8972C166.797 38.8972 167.055 38.85 167.292 38.7555C167.529 38.661 167.734 38.5271 167.908 38.3539C168.082 38.1754 168.216 37.9706 168.311 37.7396C168.411 37.5034 168.461 37.2435 168.461 36.96C168.461 36.6765 168.411 36.4192 168.311 36.1882C168.216 35.952 168.082 35.7472 167.908 35.574C167.734 35.3955 167.529 35.259 167.292 35.1645C167.055 35.07 166.797 35.0227 166.519 35.0227C166.24 35.0227 165.982 35.07 165.745 35.1645C165.513 35.259 165.308 35.3955 165.129 35.574C164.955 35.7472 164.819 35.952 164.719 36.1882C164.624 36.4192 164.576 36.6765 164.576 36.96C164.576 37.2382 164.624 37.4955 164.719 37.7317C164.819 37.968 164.955 38.1754 165.129 38.3539C165.303 38.5271 165.508 38.661 165.745 38.7555C165.982 38.85 166.24 38.8972 166.519 38.8972Z" fill="#2F302C"/>
<path d="M172.004 39.7162V34.2037H174.277C174.767 34.2037 175.185 34.2825 175.533 34.44C175.885 34.5975 176.156 34.8232 176.346 35.1172C176.535 35.4112 176.63 35.7604 176.63 36.1646C176.63 36.5689 176.535 36.918 176.346 37.212C176.156 37.5007 175.885 37.7239 175.533 37.8814C175.185 38.0336 174.767 38.1097 174.277 38.1097H172.572L173.03 37.6451V39.7162H172.004ZM175.62 39.7162L174.222 37.716H175.32L176.725 39.7162H175.62ZM173.03 37.7554L172.572 37.2671H174.23C174.683 37.2671 175.022 37.17 175.248 36.9757C175.48 36.7815 175.596 36.5111 175.596 36.1646C175.596 35.8129 175.48 35.5425 175.248 35.3535C175.022 35.1645 174.683 35.07 174.23 35.07H172.572L173.03 34.566V37.7554Z" fill="#2F302C"/>
<path d="M33.1579 5.25056C33.1579 22.5025 19.1373 36.488 1.8421 36.488C1.22371 36.488 0.609518 36.4701 0 36.4349V40.1155C0.610031 40.147 1.22419 40.163 1.8421 40.163C21.1721 40.163 36.8421 24.5322 36.8421 5.25056C36.8421 5.25039 36.8421 5.25073 36.8421 5.25056H33.1579C33.1579 5.25073 33.1579 5.25039 33.1579 5.25056Z" fill="#2F302C"/>
<path d="M31.3158 5.25005C31.3158 5.24988 31.3158 5.25022 31.3158 5.25005C31.3158 21.4872 18.12 34.6505 1.8421 34.6505C1.22343 34.6505 0.60921 34.6315 0 34.594V30.9109C0.608447 30.9538 1.22272 30.9755 1.8421 30.9755C16.0852 30.9755 27.6316 19.4581 27.6316 5.25056C27.6316 5.25039 27.6316 5.25073 27.6316 5.25056L31.3158 5.25005Z" fill="#2F302C"/>
<path d="M0 29.0684C0.607968 29.1145 1.22228 29.138 1.8421 29.138C15.0679 29.138 25.7895 18.4432 25.7895 5.25056C25.7895 5.25039 25.7895 5.25073 25.7895 5.25056L22.1053 5.25005C22.1053 5.24988 22.1053 5.25022 22.1053 5.25005C22.1053 16.4131 13.0331 25.463 1.8421 25.463C1.22114 25.463 0.606717 25.4352 0 25.3806V29.0684Z" fill="#2F302C"/>
<path d="M0 23.5348C0.605877 23.5948 1.22039 23.6255 1.8421 23.6255C12.0158 23.6255 20.2631 15.3988 20.2631 5.25056C20.2631 5.25039 20.2631 5.25073 20.2631 5.25056L16.5789 5.25005C16.5789 5.24988 16.5789 5.25022 16.5789 5.25005C16.5789 13.3686 9.98103 19.9505 1.8421 19.9505C1.21825 19.9505 0.60346 19.9119 0 19.8368V23.5348Z" fill="#2F302C"/>
<path d="M0 17.9828C0.601634 18.0686 1.21667 18.113 1.8421 18.113C8.96366 18.113 14.7368 12.3543 14.7368 5.25056C14.7368 5.25039 14.7368 5.25073 14.7368 5.25056L11.0526 5.25005C11.0526 5.24988 11.0526 5.25022 11.0526 5.25005C11.0526 10.3242 6.92893 14.4381 1.8421 14.4381C1.21124 14.4381 0.5952 14.3748 0 14.2543V17.9828Z" fill="#2F302C"/>
<path d="M0 12.369C0.588771 12.5202 1.20602 12.6006 1.8421 12.6006C5.91156 12.6006 9.21052 9.30985 9.21052 5.25056C9.21052 5.25039 9.21052 5.25073 9.21052 5.25056L0 5.25005V12.369Z" fill="#2F302C"/>
<path d="M36.8421 16.7576C36.4668 17.8942 36.0373 19.0063 35.5569 20.0908C35.9896 20.1417 36.4182 20.2063 36.8421 20.2839V16.7576Z" fill="#2F302C"/>
<path d="M36.8421 22.1557C36.1478 22.0151 35.4393 21.9135 34.7191 21.8532C34.0837 23.1026 33.3789 24.311 32.6096 25.4731C32.7915 25.4665 32.9743 25.4632 33.1579 25.4632C34.43 25.4632 35.6646 25.6239 36.8421 25.9263V22.1557Z" fill="#2F302C"/>
<path d="M18.535 42H14.8277C14.7676 41.3958 14.7368 40.7831 14.7368 40.1631C14.7368 40.0031 14.7389 39.8436 14.743 39.6845C16.0592 39.1936 17.3398 38.6298 18.5798 37.9979C18.4752 38.7045 18.421 39.4275 18.421 40.1631C18.421 40.7852 18.4598 41.3983 18.535 42Z" fill="#2F302C"/>
<path d="M36.8421 27.8333C35.6747 27.4867 34.4381 27.3007 33.1579 27.3007C32.495 27.3007 31.8438 27.3505 31.2079 27.4468C28.3481 31.2056 24.7796 34.3985 20.701 36.8275C20.4154 37.8913 20.2631 39.0095 20.2631 40.1631C20.2631 40.7868 20.3076 41.4001 20.3936 42H24.1315C24.0107 41.4065 23.9474 40.7922 23.9474 40.1631C23.9474 35.089 28.0711 30.9757 33.1579 30.9757C34.4678 30.9757 35.7139 31.2484 36.8421 31.7401V27.8333Z" fill="#2F302C"/>
<path d="M36.8421 33.7965C35.7583 33.1711 34.5 32.8131 33.1579 32.8131C29.0884 32.8131 25.7895 36.1039 25.7895 40.1631C25.7895 40.7974 25.87 41.4129 26.0214 42H36.8421V33.7965Z" fill="#2F302C"/>
<path d="M12.9773 42H9.28027C9.26156 41.7545 9.24656 41.508 9.23534 41.2605C10.4793 41.0077 11.7004 40.6924 12.8953 40.318C12.8996 40.8845 12.9272 41.4455 12.9773 42Z" fill="#2F302C"/>
<path d="M7.43315 42C7.42336 41.8617 7.41467 41.723 7.40709 41.5841C6.2022 41.7662 4.97814 41.8901 3.73791 41.9528C3.73886 41.9686 3.73982 41.9843 3.74079 42H7.43315Z" fill="#2F302C"/>
<path d="M1.62392 42C1.07974 41.9969 0.53835 41.9819 0 41.9555V42H1.62392Z" fill="#2F302C"/>
<g clip-path="url(#clip0_33_19261)">
<path d="M190.98 3.0625H192.516V6.89062H193.283V3.0625H194.818V2.29688H190.98V3.0625Z" fill="black"/>
<path d="M198.848 2.29688L197.697 4.2875L196.545 2.29688H195.586V6.89062H196.353V3.48359L197.697 5.81875L199.04 3.48359V6.89062H199.807V2.29688H198.848Z" fill="black"/>
</g>
<defs>
<clipPath id="clip0_33_19261">
<rect width="9.21053" height="9.18749" fill="white" transform="translate(190.789)"/>
</clipPath>
</defs>
</svg>
