<svg width="64" height="40" viewBox="0 0 64 40" fill="none" xmlns="http://www.w3.org/2000/svg">
<path d="M0 6C0 2.68629 2.68629 0 6 0H34C37.3137 0 40 2.68629 40 6V34C40 37.3137 37.3137 40 34 40H6C2.68629 40 0 37.3137 0 34V6Z" fill="#F4F4F5"/>
<path d="M14 16L16 13.3334H24L26 16M14 16V25.3334C14 25.687 14.1405 26.0261 14.3905 26.2762C14.6406 26.5262 14.9797 26.6667 15.3333 26.6667H24.6667C25.0203 26.6667 25.3594 26.5262 25.6095 26.2762C25.8595 26.0261 26 25.687 26 25.3334V16M14 16H26M22.6667 18.6667C22.6667 19.374 22.3857 20.0522 21.8856 20.5523C21.3855 21.0524 20.7072 21.3334 20 21.3334C19.2928 21.3334 18.6145 21.0524 18.1144 20.5523C17.6143 20.0522 17.3333 19.374 17.3333 18.6667" stroke="#18181B" stroke-width="1.33" stroke-linecap="round" stroke-linejoin="round"/>
<path d="M40 20C40 13.3726 45.3726 8 52 8C58.6274 8 64 13.3726 64 20C64 26.6274 58.6274 32 52 32C45.3726 32 40 26.6274 40 20Z" fill="#18181B"/>
<path d="M53.4425 15.2727V24H51.8615V16.8111H51.8104L49.7692 18.1151V16.6662L51.9382 15.2727H53.4425Z" fill="#FAFAFA"/>
</svg>
